<?xml version="1.0"?>
<svg xmlns="http://www.w3.org/2000/svg" width="72" height="59" viewBox="0 0 72 59" fill="none">
<path d="M63.334 19.2905C64.9162 17.6976 65.991 15.6723 66.423 13.4699C66.8551 11.2674 66.6249 8.98654 65.7617 6.91462C64.8984 4.8427 63.4405 3.07263 61.572 1.82746C59.7035 0.582286 57.5079 -0.0822656 55.2621 -0.0822656C53.0162 -0.0822656 50.8206 0.582286 48.9521 1.82746C47.0836 3.07263 45.6258 4.8427 44.7625 6.91462C43.8992 8.98654 43.6691 11.2674 44.1011 13.4699C44.5332 15.6723 45.608 17.6976 47.1902 19.2905C45.3639 20.2883 43.741 21.6196 42.4056 23.2152C40.5168 21.9168 38.2794 21.2191 35.9869 21.2136C33.6943 21.2081 31.4536 21.8951 29.5586 23.1846C28.2271 21.602 26.6127 20.2808 24.7976 19.2882C26.3806 17.6952 27.4561 15.6694 27.8887 13.4664C28.3212 11.2634 28.0912 8.98178 27.2279 6.90915C26.3646 4.83652 24.9065 3.06575 23.0375 1.82011C21.1685 0.574471 18.9723 -0.090332 16.7258 -0.090332C14.4792 -0.090332 12.283 0.574471 10.4139 1.82011C8.54494 3.06575 7.08685 4.83652 6.22352 6.90915C5.36019 8.98178 5.13027 11.2634 5.56278 13.4664C5.99529 15.6694 7.07087 17.6952 8.65386 19.2882C5.44241 21.0409 2.899 23.8032 1.4179 27.147C-0.0632031 30.4908 -0.399373 34.2294 0.461462 37.7835L5.76321 36.5091C5.15778 33.9711 5.45237 31.3018 6.5967 28.9567C7.74102 26.6115 9.66419 24.736 12.038 23.6498C14.4119 22.5637 17.0893 22.3343 19.6135 23.0009C22.1377 23.6675 24.3522 25.1887 25.8792 27.3051C24.7632 29.43 24.3566 31.8561 24.7191 34.2285C25.0815 36.6008 26.1939 38.7951 27.8936 40.4905C24.682 42.2436 22.1386 45.0063 20.6575 48.3505C19.1764 51.6946 18.8403 55.4336 19.7013 58.988L25.003 57.7114C24.6016 56.0539 24.5819 54.3269 24.9453 52.6606C25.3087 50.9944 26.0458 49.4323 27.1011 48.092C28.1563 46.7518 29.5022 45.6683 31.0373 44.9234C32.5724 44.1784 34.2567 43.7913 35.9632 43.7913C37.6697 43.7913 39.354 44.1784 40.889 44.9234C42.4241 45.6683 43.77 46.7518 44.8253 48.092C45.8805 49.4323 46.6177 50.9944 46.9811 52.6606C47.3445 54.3269 47.3248 56.0539 46.9233 57.7114L52.2251 58.988C53.086 55.4336 52.75 51.6946 51.2689 48.3505C49.7878 45.0063 47.2444 42.2436 44.0327 40.4905C45.7259 38.803 46.8367 36.62 47.2036 34.2586C47.5705 31.8972 47.1745 29.4805 46.0731 27.3594C47.5861 25.2218 49.7973 23.678 52.3262 22.9936C54.8551 22.3091 57.5437 22.5268 59.9293 23.6092C62.315 24.6916 64.2486 26.571 65.3976 28.9241C66.5465 31.2772 66.8389 33.9568 66.2246 36.5021L71.5263 37.7764C72.3871 34.2223 72.051 30.4836 70.5699 27.1398C69.0888 23.796 66.5454 21.0339 63.334 19.2811V19.2905ZM10.8028 11.3208C10.7996 10.1499 11.144 9.00436 11.7926 8.02923C12.4411 7.05409 13.3646 6.29328 14.4462 5.84294C15.5277 5.3926 16.7187 5.27298 17.8682 5.4994C19.0178 5.72582 20.0743 6.28806 20.9039 7.11484C21.7336 7.94162 22.299 8.99578 22.5288 10.1439C22.7586 11.2921 22.6424 12.4826 22.1948 13.5647C21.7472 14.6467 20.9883 15.5717 20.0143 16.2225C19.0403 16.8734 17.895 17.2207 16.7234 17.2208C15.1573 17.2201 13.6553 16.5989 12.5468 15.4934C11.4383 14.3878 10.8137 12.8882 10.81 11.3232L10.8028 11.3208ZM30.0404 32.5325C30.0371 31.3616 30.3815 30.2161 31.0301 29.241C31.6787 28.2659 32.6021 27.5049 33.6836 27.0546C34.7652 26.6042 35.9561 26.4847 37.1057 26.7112C38.2552 26.9376 39.3117 27.4997 40.1414 28.3265C40.971 29.1532 41.5366 30.2075 41.7663 31.3557C41.9961 32.5038 41.8799 33.6942 41.4322 34.7763C40.9846 35.8583 40.2257 36.7833 39.2518 37.4342C38.2778 38.085 37.1325 38.4325 35.9608 38.4325C35.1845 38.4338 34.4156 38.2819 33.6981 37.9858C32.9805 37.6897 32.3284 37.2551 31.7791 36.7069C31.2299 36.1586 30.7942 35.5075 30.4971 34.7908C30.1999 34.0741 30.0471 33.3059 30.0474 32.5301L30.0404 32.5325ZM49.3439 11.3208C49.3406 10.1499 49.6851 9.00436 50.3337 8.02923C50.9822 7.05409 51.9057 6.29328 52.9873 5.84294C54.0688 5.3926 55.2597 5.27298 56.4093 5.4994C57.5588 5.72582 58.6153 6.28806 59.4449 7.11484C60.2746 7.94162 60.8401 8.99578 61.0699 10.1439C61.2997 11.2921 61.1834 12.4826 60.7358 13.5647C60.2882 14.6467 59.5294 15.5717 58.5554 16.2225C57.5814 16.8734 56.4361 17.2207 55.2645 17.2208C53.6984 17.2201 52.1964 16.5989 51.0879 15.4934C49.9794 14.3878 49.3547 12.8882 49.351 11.3232L49.3439 11.3208Z" fill="#11A9D5"/>
</svg>
