<?xml version="1.0"?>
<svg xmlns="http://www.w3.org/2000/svg" width="63" height="63" viewBox="0 0 63 63">
<path d="M31.5762 62.2294L6.1595 36.0895C2.53369 32.4501 0.352563 27.5573 0.0391539 22.3594C-0.274255 17.1616 1.30235 12.0294 4.46325 7.95812C6.12875 5.78912 8.19681 3.9812 10.5474 2.63934C12.8979 1.29748 15.4843 0.448349 18.1566 0.141011C22.8635 -0.42417 27.6147 0.720616 31.586 3.3772C34.858 1.25124 38.6479 0.118177 42.5193 0.108494H42.5363C47.9623 0.118373 53.1631 2.33815 56.999 6.28092C60.8349 10.2237 62.993 15.5677 63 21.1423V21.3763C62.948 26.9517 60.7509 32.2795 56.8887 36.1964L31.5762 62.2294ZM20.5144 5.42363C19.929 5.42393 19.3441 5.45804 18.7624 5.52574C16.7796 5.75334 14.8606 6.383 13.1165 7.37829C11.3724 8.37358 9.8379 9.71465 8.60205 11.3238C6.25552 14.3479 5.08615 18.16 5.32077 22.02C5.55539 25.88 7.17725 29.5125 9.87177 32.2133L31.5762 54.5445L53.1788 32.3178C54.622 30.8587 55.7677 29.1189 56.5487 27.1996C57.3296 25.2803 57.7302 23.2201 57.7271 21.1399V20.9208C57.6699 16.8205 56.0462 12.9076 53.2061 10.0261C50.3661 7.14468 46.5374 5.52556 42.5459 5.51814C39.1645 5.5288 35.8824 6.69278 33.2143 8.82696L31.5762 10.1437L29.9479 8.81177C27.2704 6.61219 23.9426 5.41704 20.5144 5.42363Z" fill="#11A9D5"/>
</svg>
